<svg xmlns="http://www.w3.org/2000/svg"><style>:root svg:not(:target){display:none}</style><svg viewBox="0 0 18 16" fill="none" id="arrow-left"><path d="M.38 8a.38.38 0 0 0 .37.38h15.6l-6.12 6.1a.38.38 0 1 0 .54.54l6.75-6.75a.37.37 0 0 0 0-.54l-6.75-6.75a.37.37 0 1 0-.54.54l6.11 6.1h-15.59a.37.37 0 0 0-.37.38Z" fill="#fff"></path></svg><svg viewBox="0 0 18 16" fill="none" id="arrow-right"><path d="M17.63 8a.38.38 0 0 1-.38.37h-15.6l6.12 6.11a.38.38 0 1 1-.54.54l-6.75-6.75a.38.38 0 0 1 0-.54l6.75-6.75a.38.38 0 1 1 .54.54l-6.11 6.1h15.59a.38.38 0 0 1 .38.38Z" fill="#fff"></path></svg><svg viewBox="0 0 48 34" fill="none" id="book"><path d="M17.51 0c-3.17.02-5.96 1.44-8.67 2.67-2.7 1.23-5.32 2.25-8.2 1.76a.56.56 0 0 0-.64.56v27.8c0 .27.2.5.47.54 4.32.74 7.94-1.55 11.55-3.07 3.6-1.52 7.11-2.4 11.67.77.19.13.43.13.62 0 4.56-3.16 8.07-2.3 11.67-.77 3.61 1.52 7.23 3.81 11.55 3.07a.56.56 0 0 0 .47-.54v-27.8a.56.56 0 0 0-.65-.56c-2.87.5-5.48-.53-8.2-1.76-2.7-1.23-5.49-2.65-8.66-2.67-2.02-.01-4.18.59-6.49 2.11a11.51 11.51 0 0 0-6.49-2.11Zm0 1.12c1.82-.01 3.76.5 5.93 1.95v26.53c-4.49-2.7-8.37-1.84-11.86-.37-3.56 1.5-6.82 3.42-10.46 3v-26.67c2.97.3 5.64-.72 8.2-1.88 2.73-1.24 5.36-2.55 8.2-2.56Zm12.98 0c2.83.01 5.46 1.32 8.2 2.56 2.55 1.16 5.22 2.19 8.2 1.88v26.67c-3.65.42-6.9-1.5-10.47-3-3.5-1.47-7.38-2.32-11.86.37v-26.53a10.34 10.34 0 0 1 5.93-1.95Z" fill="#A4834E"></path></svg><svg viewBox="0 0 48 41" fill="none" id="case"><path d="M14.5 0a.56.56 0 0 0-.42.38l-1.94 5.35h-11.63a.57.57 0 0 0-.51.57v14.38c0 .31.25.57.56.57h1.46v19.18c0 .31.25.57.56.57h42.84c.3 0 .56-.26.56-.57v-19.18h1.46c.31 0 .56-.26.56-.57v-14.38a.56.56 0 0 0-.56-.57h-11.58l-1.94-5.35a.56.56 0 0 0-.52-.38h-18.9Zm.48 1.14h18.04l1.65 4.6h-21.34l1.65-4.6Zm-13.86 5.73h45.76v13.24h-8.79v-2.69a.57.57 0 0 0-.43-.57h-4.15a.57.57 0 0 0-.56.57v2.69h-17.9v-2.69a.56.56 0 0 0-.56-.57h-4.15a.57.57 0 0 0-.43.57v2.69h-8.8v-13.24Zm9.9 11.12h2.92v5.32h-2.92v-5.32Zm23.04 0h2.92v5.32h-2.92v-5.32Zm-30.92 3.26h6.77v2.63c0 .32.25.57.56.57h4.02c.31 0 .56-.25.56-.57v-2.63h17.9v2.63c0 .32.25.57.56.57h4.03c.3 0 .55-.25.55-.57v-2.63h6.77v18.61h-41.72v-18.61Z" fill="#A4834E"></path></svg><svg viewBox="0 0 48 47" fill="none" id="clock"><path d="M23.51.76c-12.92 0-23.4 10.35-23.4 23.1 0 12.76 10.49 23.1 23.4 23.1 12.92 0 23.4-10.34 23.4-23.1 0-.3-.24-.53-.54-.53h-2.6a.55.55 0 0 0-.4.15.53.53 0 0 0 0 .77c.11.1.25.15.4.15h2a21.88 21.88 0 0 1-6.1 14.64l-1.48-1.44a.54.54 0 0 0-.92.21c-.06.2 0 .4.15.55l1.48 1.46a22.3 22.3 0 0 1-14.84 6.07v-2.08c0-.15-.07-.3-.19-.4a.55.55 0 0 0-.9.4v2.08a22.36 22.36 0 0 1-14.87-6.09l1.5-1.44a.53.53 0 0 0 .12-.62.55.55 0 0 0-.56-.3.55.55 0 0 0-.32.14l-1.52 1.45a21.81 21.81 0 0 1-6.1-14.63h2.07c.15 0 .29-.05.4-.15a.53.53 0 0 0 0-.77.55.55 0 0 0-.4-.15h-2.07a21.79 21.79 0 0 1 6.14-14.64l1.48 1.44a.55.55 0 0 0 .77 0 .53.53 0 0 0 0-.77l-1.47-1.45a22.36 22.36 0 0 1 14.83-6.06v2.05a.55.55 0 0 0 1.09 0v-2.05c8.71.23 16.66 5.8 20.17 13.17l-6.9-1.55a.55.55 0 0 0-.45.04.54.54 0 0 0-.18.78c.09.13.23.2.38.22l8.15 1.82c.3.06.58-.12.65-.4l1.85-8.07c.03-.15 0-.3-.09-.43a.55.55 0 0 0-.39-.22.54.54 0 0 0-.6.42l-1.52 6.73c-3.81-7.8-12.3-13.6-21.62-13.6Zm-.07 9.08a.54.54 0 0 0-.47.56v10.32a3.22 3.22 0 0 0-2.69 3.14 3.22 3.22 0 0 0 5.09 2.59l5.44 5.37a.55.55 0 0 0 .96-.36c0-.15-.08-.3-.2-.4l-5.42-5.37c.37-.52.6-1.14.6-1.83a3.22 3.22 0 0 0-2.7-3.14v-10.32a.54.54 0 0 0-.17-.42.55.55 0 0 0-.44-.14Zm.07 11.9a2.12 2.12 0 1 1 0 4.23 2.12 2.12 0 0 1-2.14-2.1c0-1.18.95-2.12 2.14-2.12Z" fill="#A4834E"></path></svg><svg viewBox="0 0 24 24" fill="none" id="cross"><path d="m5.83 5.83 12.34 12.34m0-12.34-12.34 12.34" stroke="#B1B1B1" stroke-width=".444" stroke-miterlimit="10" stroke-linecap="round" stroke-linejoin="round"></path></svg><svg viewBox="0 0 30 48" fill="none" id="horse"><path d="M16.05.14c-1.5.28-3.11 1.5-4.84 3.09a59 59 0 0 0-5.18 5.58c-3.29 3.96-5.93 7.81-5.93 7.81a.56.56 0 0 0-.05.54l8.42 18.42-3.58 4.74a.56.56 0 0 0-.12.33v6.92a.56.56 0 0 0 .58.56c7.16-.15 14.32-.07 21.5 0 .3 0 .56-.25.56-.56v-6.92a.56.56 0 0 0-.1-.33l-3.8-5a.56.56 0 0 0-.45-.23h-13.58l-8.28-18.1c.26-.39 2.61-3.76 5.68-7.47a58.23 58.23 0 0 1 5.08-5.47 12.69 12.69 0 0 1 3.64-2.5v4.19c0 .25.17.48.42.54 2.26.54 5 1.9 7.27 3.49 2.17 1.52 3.86 3.27 4.48 4.55l-2.77 4.05-7.38.9a.56.56 0 0 0-.38.9l6.68 8.66-1.5 2.98a.56.56 0 1 0 1 .5l1.65-3.29c.1-.2.08-.42-.05-.6l-6.3-8.15 6.68-.82a.6.6 0 0 0 .39-.25l3.12-4.58c.1-.15.13-.35.07-.53-.72-1.72-2.67-3.57-5.04-5.23a24.39 24.39 0 0 0-7.22-3.5v-4.66a.56.56 0 0 0-.67-.56Zm-6.66 36.06h13.41l3.5 4.64v6.18c-6.8-.07-13.6-.14-20.41 0v-5.53h15.19a.56.56 0 1 0 0-1.12h-14.83l3.14-4.17Z" fill="#A4834E"></path></svg><svg viewBox="0 0 36 23" fill="none" id="logo"><path d="M8.47 18h-.66l-.96-.02-1.04-.02h-2.58c-.51 0-1 .02-1.45.04a89.26 89.26 0 0 0 .08-2.94l.01-1.87c.02-.65.02-1.26.02-1.84v-1.58a76.14 76.14 0 0 0-.05-3.21l-.04-1.13a3.19 3.19 0 0 0 1.18 0 55.82 55.82 0 0 0-.08 2.5l-.03 1.71v3.56l.01 1.8a69.42 69.42 0 0 1 .04 2.34l1.34.02h1.43a51.8 51.8 0 0 0 2.78-.17 1.8 1.8 0 0 0 0 .81Zm26.82.02a5.31 5.31 0 0 0-1.12-.04l-.33.04-1.05-1.38a65.52 65.52 0 0 0-2.7-3.43c-.44-.56-.82-1-1.12-1.36h-1.07v3.14l.02 1.7.04 1.33-.3-.02a1.96 1.96 0 0 0-.57 0c-.1 0-.19 0-.27.02a103.92 103.92 0 0 0 .07-3.09l.02-1.83a81.6 81.6 0 0 0 0-3.4 72.62 72.62 0 0 0-.05-3.16l-.02-1.09c.45.03.95.03 1.5.02a84.9 84.9 0 0 1 1.84-.02c1.26 0 2.23.24 2.9.72.69.48 1.03 1.2 1.03 2.19a2.91 2.91 0 0 1-1.2 2.39c-.35.26-.76.48-1.22.65-.47.16-.95.28-1.44.35a842.5 842.5 0 0 0 2.43 3.09l1.4 1.73 1.2 1.45Zm-2.24-9.54c0-.82-.28-1.44-.83-1.87a3.69 3.69 0 0 0-2.32-.64h-.45c-.18 0-.35 0-.54.02l-.53.01h-.44v.48c0 .26 0 .57-.02.94 0 .35 0 .75-.02 1.17 0 .42 0 .82-.02 1.2v1.5c.14.02.34.03.61.04h.7c.45 0 .9-.05 1.36-.15.46-.1.88-.27 1.25-.5.36-.22.66-.52.9-.87.23-.37.35-.81.35-1.33Z" fill="#fff"></path><path stroke="#fff" stroke-width=".8" d="M17.4 4.21v15.3"></path></svg><svg viewBox="0 0 34 42" fill="none" id="map-pin"><path d="M17 0a16.52 16.52 0 0 0-16.5 16.5c0 14.12 15 24.78 15.64 25.23a1.5 1.5 0 0 0 1.72 0c.64-.45 15.64-11.11 15.64-25.23a16.52 16.52 0 0 0-16.5-16.5Zm0 10.5a6 6 0 1 1 0 12 6 6 0 0 1 0-12Z" fill="#E3C37A"></path></svg><svg viewBox="0 0 12 10" fill="none" id="okay"><path d="m3.42 8.46-2.57-2.58-.34.34 2.9 2.9 8-7.74-.34-.34-7.65 7.42Z" fill="#4EA470" stroke="#4EA470" stroke-width=".5"></path></svg><svg viewBox="0 0 14 2" fill="none" id="wrong"><path d="M13.48.76h-12.96v.48h12.96v-.48Z" fill="#A44E4E" stroke="#A44E4E" stroke-width=".5"></path></svg></svg>