<svg viewBox="0 0 48 47" fill="none" xmlns="http://www.w3.org/2000/svg"><path d="M23.51.76c-12.92 0-23.4 10.35-23.4 23.1 0 12.76 10.49 23.1 23.4 23.1 12.92 0 23.4-10.34 23.4-23.1 0-.3-.24-.53-.54-.53h-2.6a.55.55 0 0 0-.4.15.53.53 0 0 0 0 .77c.11.1.25.15.4.15h2a21.88 21.88 0 0 1-6.1 14.64l-1.48-1.44a.54.54 0 0 0-.92.21c-.06.2 0 .4.15.55l1.48 1.46a22.3 22.3 0 0 1-14.84 6.07v-2.08c0-.15-.07-.3-.19-.4a.55.55 0 0 0-.9.4v2.08a22.36 22.36 0 0 1-14.87-6.09l1.5-1.44a.53.53 0 0 0 .12-.62.55.55 0 0 0-.56-.3.55.55 0 0 0-.32.14l-1.52 1.45a21.81 21.81 0 0 1-6.1-14.63h2.07c.15 0 .29-.05.4-.15a.53.53 0 0 0 0-.77.55.55 0 0 0-.4-.15h-2.07a21.79 21.79 0 0 1 6.14-14.64l1.48 1.44a.55.55 0 0 0 .77 0 .53.53 0 0 0 0-.77l-1.47-1.45a22.36 22.36 0 0 1 14.83-6.06v2.05a.55.55 0 0 0 1.09 0v-2.05c8.71.23 16.66 5.8 20.17 13.17l-6.9-1.55a.55.55 0 0 0-.45.04.54.54 0 0 0-.18.78c.09.13.23.2.38.22l8.15 1.82c.3.06.58-.12.65-.4l1.85-8.07c.03-.15 0-.3-.09-.43a.55.55 0 0 0-.39-.22.54.54 0 0 0-.6.42l-1.52 6.73c-3.81-7.8-12.3-13.6-21.62-13.6Zm-.07 9.08a.54.54 0 0 0-.47.56v10.32a3.22 3.22 0 0 0-2.69 3.14 3.22 3.22 0 0 0 5.09 2.59l5.44 5.37a.55.55 0 0 0 .96-.36c0-.15-.08-.3-.2-.4l-5.42-5.37c.37-.52.6-1.14.6-1.83a3.22 3.22 0 0 0-2.7-3.14v-10.32a.54.54 0 0 0-.17-.42.55.55 0 0 0-.44-.14Zm.07 11.9a2.12 2.12 0 1 1 0 4.23 2.12 2.12 0 0 1-2.14-2.1c0-1.18.95-2.12 2.14-2.12Z" fill="#A4834E"/></svg>