<svg viewBox="0 0 48 34" fill="none" xmlns="http://www.w3.org/2000/svg"><path d="M17.51 0c-3.17.02-5.96 1.44-8.67 2.67-2.7 1.23-5.32 2.25-8.2 1.76a.56.56 0 0 0-.64.56v27.8c0 .27.2.5.47.54 4.32.74 7.94-1.55 11.55-3.07 3.6-1.52 7.11-2.4 11.67.77.19.13.43.13.62 0 4.56-3.16 8.07-2.3 11.67-.77 3.61 1.52 7.23 3.81 11.55 3.07a.56.56 0 0 0 .47-.54v-27.8a.56.56 0 0 0-.65-.56c-2.87.5-5.48-.53-8.2-1.76-2.7-1.23-5.49-2.65-8.66-2.67-2.02-.01-4.18.59-6.49 2.11a11.51 11.51 0 0 0-6.49-2.11Zm0 1.12c1.82-.01 3.76.5 5.93 1.95v26.53c-4.49-2.7-8.37-1.84-11.86-.37-3.56 1.5-6.82 3.42-10.46 3v-26.67c2.97.3 5.64-.72 8.2-1.88 2.73-1.24 5.36-2.55 8.2-2.56Zm12.98 0c2.83.01 5.46 1.32 8.2 2.56 2.55 1.16 5.22 2.19 8.2 1.88v26.67c-3.65.42-6.9-1.5-10.47-3-3.5-1.47-7.38-2.32-11.86.37v-26.53a10.34 10.34 0 0 1 5.93-1.95Z" fill="#A4834E"/></svg>