<svg viewBox="0 0 30 48" fill="none" xmlns="http://www.w3.org/2000/svg"><path d="M16.05.14c-1.5.28-3.11 1.5-4.84 3.09a59 59 0 0 0-5.18 5.58c-3.29 3.96-5.93 7.81-5.93 7.81a.56.56 0 0 0-.05.54l8.42 18.42-3.58 4.74a.56.56 0 0 0-.12.33v6.92a.56.56 0 0 0 .58.56c7.16-.15 14.32-.07 21.5 0 .3 0 .56-.25.56-.56v-6.92a.56.56 0 0 0-.1-.33l-3.8-5a.56.56 0 0 0-.45-.23h-13.58l-8.28-18.1c.26-.39 2.61-3.76 5.68-7.47a58.23 58.23 0 0 1 5.08-5.47 12.69 12.69 0 0 1 3.64-2.5v4.19c0 .25.17.48.42.54 2.26.54 5 1.9 7.27 3.49 2.17 1.52 3.86 3.27 4.48 4.55l-2.77 4.05-7.38.9a.56.56 0 0 0-.38.9l6.68 8.66-1.5 2.98a.56.56 0 1 0 1 .5l1.65-3.29c.1-.2.08-.42-.05-.6l-6.3-8.15 6.68-.82a.6.6 0 0 0 .39-.25l3.12-4.58c.1-.15.13-.35.07-.53-.72-1.72-2.67-3.57-5.04-5.23a24.39 24.39 0 0 0-7.22-3.5v-4.66a.56.56 0 0 0-.67-.56Zm-6.66 36.06h13.41l3.5 4.64v6.18c-6.8-.07-13.6-.14-20.41 0v-5.53h15.19a.56.56 0 1 0 0-1.12h-14.83l3.14-4.17Z" fill="#A4834E"/></svg>