<svg viewBox="0 0 48 41" fill="none" xmlns="http://www.w3.org/2000/svg"><path d="M14.5 0a.56.56 0 0 0-.42.38l-1.94 5.35h-11.63a.57.57 0 0 0-.51.57v14.38c0 .31.25.57.56.57h1.46v19.18c0 .31.25.57.56.57h42.84c.3 0 .56-.26.56-.57v-19.18h1.46c.31 0 .56-.26.56-.57v-14.38a.56.56 0 0 0-.56-.57h-11.58l-1.94-5.35a.56.56 0 0 0-.52-.38h-18.9Zm.48 1.14h18.04l1.65 4.6h-21.34l1.65-4.6Zm-13.86 5.73h45.76v13.24h-8.79v-2.69a.57.57 0 0 0-.43-.57h-4.15a.57.57 0 0 0-.56.57v2.69h-17.9v-2.69a.56.56 0 0 0-.56-.57h-4.15a.57.57 0 0 0-.43.57v2.69h-8.8v-13.24Zm9.9 11.12h2.92v5.32h-2.92v-5.32Zm23.04 0h2.92v5.32h-2.92v-5.32Zm-30.92 3.26h6.77v2.63c0 .32.25.57.56.57h4.02c.31 0 .56-.25.56-.57v-2.63h17.9v2.63c0 .32.25.57.56.57h4.03c.3 0 .55-.25.55-.57v-2.63h6.77v18.61h-41.72v-18.61Z" fill="#A4834E"/></svg>