<svg viewBox="0 0 36 23" fill="none" xmlns="http://www.w3.org/2000/svg"><path d="M8.47 18h-.66l-.96-.02-1.04-.02h-2.58c-.51 0-1 .02-1.45.04a89.26 89.26 0 0 0 .08-2.94l.01-1.87c.02-.65.02-1.26.02-1.84v-1.58a76.14 76.14 0 0 0-.05-3.21l-.04-1.13a3.19 3.19 0 0 0 1.18 0 55.82 55.82 0 0 0-.08 2.5l-.03 1.71v3.56l.01 1.8a69.42 69.42 0 0 1 .04 2.34l1.34.02h1.43a51.8 51.8 0 0 0 2.78-.17 1.8 1.8 0 0 0 0 .81Zm26.82.02a5.31 5.31 0 0 0-1.12-.04l-.33.04-1.05-1.38a65.52 65.52 0 0 0-2.7-3.43c-.44-.56-.82-1-1.12-1.36h-1.07v3.14l.02 1.7.04 1.33-.3-.02a1.96 1.96 0 0 0-.57 0c-.1 0-.19 0-.27.02a103.92 103.92 0 0 0 .07-3.09l.02-1.83a81.6 81.6 0 0 0 0-3.4 72.62 72.62 0 0 0-.05-3.16l-.02-1.09c.45.03.95.03 1.5.02a84.9 84.9 0 0 1 1.84-.02c1.26 0 2.23.24 2.9.72.69.48 1.03 1.2 1.03 2.19a2.91 2.91 0 0 1-1.2 2.39c-.35.26-.76.48-1.22.65-.47.16-.95.28-1.44.35a842.5 842.5 0 0 0 2.43 3.09l1.4 1.73 1.2 1.45Zm-2.24-9.54c0-.82-.28-1.44-.83-1.87a3.69 3.69 0 0 0-2.32-.64h-.45c-.18 0-.35 0-.54.02l-.53.01h-.44v.48c0 .26 0 .57-.02.94 0 .35 0 .75-.02 1.17 0 .42 0 .82-.02 1.2v1.5c.14.02.34.03.61.04h.7c.45 0 .9-.05 1.36-.15.46-.1.88-.27 1.25-.5.36-.22.66-.52.9-.87.23-.37.35-.81.35-1.33Z" fill="#fff"/><path stroke="#fff" stroke-width=".8" d="M17.4 4.21v15.3"/></svg>